<svg xmlns="http://www.w3.org/2000/svg" viewBox="0 0 820 110" fill="none">
  <g transform="translate(4 6)">
    <path d="M53 8c7-10 24-11 32 0 8-11 25-10 32 0 9 12 0 25-32 43C53 33 44 20 53 8Z" fill="#d6a13d"/>
    <rect x="7" y="38" width="23" height="40" rx="6" transform="rotate(-35 7 38)" fill="#203d74"/>
    <rect x="74" y="25" width="23" height="40" rx="6" transform="rotate(35 74 25)" fill="#203d74"/>
    <path d="M23 52c7-8 18-8 25-1l10 10c2 2 5 2 7 0l8-8c7-7 18-7 25 0l6 6c6 6 6 15 0 21l-7 7c-4 4-10 4-14 0l-6-6-4 4c-4 4-10 4-14 0l-5-5-4 4c-4 4-10 4-14 0L23 73c-6-6-6-15 0-21Z" fill="#203d74"/>
    <text x="85" y="68" font-family="Georgia, 'Times New Roman', serif" font-size="26" font-weight="700" fill="#ffffff" text-anchor="middle" letter-spacing="0.5">HHF</text>
  </g>
  <text x="128" y="46" font-family="Georgia, 'Times New Roman', serif" font-size="25" font-weight="700" fill="#1a1a1a" letter-spacing="1">HOLISTIC HEALTH &amp;</text>
  <text x="128" y="78" font-family="Georgia, 'Times New Roman', serif" font-size="25" fill="#d6a13d" letter-spacing="1.8">FINANCIAL SERVICES</text>
</svg>
